<svg width="60" height="60" viewBox="0 0 60 60" fill="none" xmlns="http://www.w3.org/2000/svg">
<rect width="60" height="60" rx="30" fill="#CBCED0"/>
<path d="M27.3 40L26.9 36.8C26.6833 36.7167 26.4792 36.6167 26.2875 36.5C26.0958 36.3833 25.9083 36.2583 25.725 36.125L22.75 37.375L20 32.625L22.575 30.675C22.5583 30.5583 22.55 30.4458 22.55 30.3375V29.6625C22.55 29.5542 22.5583 29.4417 22.575 29.325L20 27.375L22.75 22.625L25.725 23.875C25.9083 23.7417 26.1 23.6167 26.3 23.5C26.5 23.3833 26.7 23.2833 26.9 23.2L27.3 20H32.8L33.2 23.2C33.4167 23.2833 33.6208 23.3833 33.8125 23.5C34.0042 23.6167 34.1917 23.7417 34.375 23.875L37.35 22.625L40.1 27.375L37.525 29.325C37.5417 29.4417 37.55 29.5542 37.55 29.6625V30.3375C37.55 30.4458 37.5333 30.5583 37.5 30.675L40.075 32.625L37.325 37.375L34.375 36.125C34.1917 36.2583 34 36.3833 33.8 36.5C33.6 36.6167 33.4 36.7167 33.2 36.8L32.8 40H27.3ZM29.05 38H31.025L31.375 35.35C31.8917 35.2167 32.3708 35.0208 32.8125 34.7625C33.2542 34.5042 33.6583 34.1917 34.025 33.825L36.5 34.85L37.475 33.15L35.325 31.525C35.4083 31.2917 35.4667 31.0458 35.5 30.7875C35.5333 30.5292 35.55 30.2667 35.55 30C35.55 29.7333 35.5333 29.4708 35.5 29.2125C35.4667 28.9542 35.4083 28.7083 35.325 28.475L37.475 26.85L36.5 25.15L34.025 26.2C33.6583 25.8167 33.2542 25.4958 32.8125 25.2375C32.3708 24.9792 31.8917 24.7833 31.375 24.65L31.05 22H29.075L28.725 24.65C28.2083 24.7833 27.7292 24.9792 27.2875 25.2375C26.8458 25.4958 26.4417 25.8083 26.075 26.175L23.6 25.15L22.625 26.85L24.775 28.45C24.6917 28.7 24.6333 28.95 24.6 29.2C24.5667 29.45 24.55 29.7167 24.55 30C24.55 30.2667 24.5667 30.525 24.6 30.775C24.6333 31.025 24.6917 31.275 24.775 31.525L22.625 33.15L23.6 34.85L26.075 33.8C26.4417 34.1833 26.8458 34.5042 27.2875 34.7625C27.7292 35.0208 28.2083 35.2167 28.725 35.35L29.05 38ZM30.1 33.5C31.0667 33.5 31.8917 33.1583 32.575 32.475C33.2583 31.7917 33.6 30.9667 33.6 30C33.6 29.0333 33.2583 28.2083 32.575 27.525C31.8917 26.8417 31.0667 26.5 30.1 26.5C29.1167 26.5 28.2875 26.8417 27.6125 27.525C26.9375 28.2083 26.6 29.0333 26.6 30C26.6 30.9667 26.9375 31.7917 27.6125 32.475C28.2875 33.1583 29.1167 33.5 30.1 33.5Z" fill="#6F7173"/>
</svg>
