<svg width="49" height="48" viewBox="0 0 49 48" fill="none" xmlns="http://www.w3.org/2000/svg">
<path d="M24.5008 46.7101C22.9308 46.7101 21.4008 46.5501 19.9208 46.2501C18.4408 45.9501 17.0208 45.5001 15.6608 44.9301C14.3008 44.3601 13.0108 43.6501 11.8008 42.8401C10.5908 42.0201 9.47078 41.0901 8.44078 40.0701C7.41078 39.0401 6.48078 37.9201 5.67078 36.7101C4.85078 35.5001 4.15078 34.2101 3.58078 32.8501C3.01078 31.4901 2.56078 30.0601 2.26078 28.5901C1.96078 27.1201 1.80078 25.5801 1.80078 24.0101C1.80078 22.4401 1.96078 20.9101 2.26078 19.4301C2.56078 17.9501 3.01078 16.5301 3.58078 15.1701C4.15078 13.8101 4.86078 12.5201 5.67078 11.3101C6.49078 10.1001 7.42078 8.98006 8.44078 7.95006C9.46078 6.92006 10.5908 5.99006 11.8008 5.18006C13.0108 4.36006 14.3008 3.66006 15.6608 3.09006C17.0208 2.52006 18.4508 2.07006 19.9208 1.77006C21.3908 1.47006 22.9308 1.31006 24.5008 1.31006C26.0708 1.31006 27.6008 1.47006 29.0808 1.77006C30.5608 2.07006 31.9808 2.52006 33.3408 3.09006C34.7008 3.66006 35.9908 4.37006 37.2008 5.18006C38.4108 5.99006 39.5308 6.93006 40.5608 7.95006C41.5908 8.98006 42.5208 10.1001 43.3308 11.3101C44.1408 12.5201 44.8508 13.8101 45.4208 15.1701C45.9908 16.5301 46.4408 17.9601 46.7408 19.4301C47.0408 20.9001 47.2008 22.4401 47.2008 24.0101C47.2008 25.5801 47.0408 27.1101 46.7408 28.5901C46.4408 30.0701 45.9908 31.4901 45.4208 32.8501C44.8508 34.2101 44.1408 35.5001 43.3308 36.7101C42.5108 37.9201 41.5808 39.0401 40.5608 40.0701C39.5308 41.1001 38.4108 42.0301 37.2008 42.8401C35.9908 43.6501 34.7008 44.3601 33.3408 44.9301C31.9808 45.5001 30.5508 45.9501 29.0808 46.2501C27.6008 46.5501 26.0708 46.7101 24.5008 46.7101Z" fill="black" fill-opacity="0.5"/>
<path d="M24.5816 37.0701C23.9316 37.0701 23.2916 37.0301 22.6716 36.9401C22.0516 36.8501 21.4516 36.7301 20.8716 36.5601C20.2916 36.3901 19.7316 36.1801 19.2016 35.9201C18.6716 35.6601 18.1616 35.3701 17.6816 35.0201C17.2016 34.6801 16.7616 34.2901 16.3416 33.8701C15.9316 33.4401 15.5516 32.9701 15.2116 32.4601C14.8716 31.9501 14.5616 31.3901 14.3016 30.7901C14.0416 30.1901 13.8216 29.5501 13.6416 28.8601C13.5416 28.4701 13.4616 28.0801 13.3916 27.6801C13.3216 27.2801 13.2616 26.8801 13.2216 26.4801C13.1816 26.0801 13.1516 25.6801 13.1316 25.2801C13.1116 24.8801 13.1016 24.4901 13.1016 24.1101C13.1016 23.7201 13.1116 23.3501 13.1316 22.9801C13.1516 22.6101 13.1816 22.2501 13.2116 21.9101C13.2416 21.5601 13.2816 21.2301 13.3316 20.9201C13.3816 20.6001 13.4316 20.3001 13.4816 20.0201C13.5416 19.7101 13.6216 19.3801 13.7216 19.0401C13.8216 18.7001 13.9316 18.3501 14.0716 18.0001C14.2016 17.6501 14.3616 17.2901 14.5316 16.9301C14.7016 16.5701 14.8916 16.2201 15.1016 15.8701C15.3116 15.5201 15.5316 15.1801 15.7816 14.8601C16.0316 14.5301 16.2916 14.2201 16.5816 13.9201C16.8716 13.6201 17.1716 13.3501 17.4916 13.1001C17.8116 12.8501 18.1616 12.6201 18.5216 12.4201C18.9016 12.2101 19.3016 12.0301 19.7016 11.8701C20.1016 11.7101 20.5016 11.5701 20.9116 11.4601C21.3216 11.3501 21.7216 11.2501 22.1316 11.1801C22.5316 11.1101 22.9416 11.0501 23.3316 11.0101C23.7216 10.9701 24.1116 10.9501 24.4916 10.9401C24.8716 10.9401 25.2316 10.9401 25.5916 10.9601C25.9516 10.9801 26.2816 11.0101 26.6016 11.0501C26.9216 11.0901 27.2216 11.1401 27.4916 11.2001C27.8416 11.2801 28.1816 11.3601 28.5016 11.4501C28.8316 11.5401 29.1416 11.6501 29.4416 11.7601C29.7416 11.8701 30.0416 12.0001 30.3216 12.1301C30.6016 12.2601 30.8716 12.4101 31.1416 12.5701C31.4116 12.7301 31.6516 12.8901 31.9016 13.0701C32.1416 13.2501 32.3816 13.4401 32.6016 13.6401C32.8216 13.8401 33.0416 14.0501 33.2516 14.2801C33.4616 14.5101 33.6616 14.7401 33.8516 14.9901C34.0516 15.2501 34.2416 15.5101 34.4116 15.7701C34.5816 16.0301 34.7316 16.2801 34.8616 16.5301C34.9916 16.7801 35.1116 17.0201 35.2216 17.2501C35.3316 17.4801 35.4216 17.6901 35.4916 17.9001C35.5716 18.1001 35.6316 18.2901 35.6916 18.4501C35.7416 18.6201 35.7916 18.7601 35.8216 18.8801C35.8516 19.0001 35.8816 19.1001 35.9016 19.1701C35.9216 19.2401 35.9316 19.2801 35.9316 19.2901L35.6616 19.3401L35.3916 19.3901L35.1216 19.4401L34.8516 19.4901L34.5816 19.5401L34.3116 19.5901L34.0416 19.6401L33.7716 19.6901C33.7716 19.6901 33.7716 19.6601 33.7516 19.6101C33.7416 19.5601 33.7216 19.4901 33.6916 19.3901C33.6616 19.2901 33.6316 19.1801 33.5816 19.0501C33.5316 18.9201 33.4816 18.7801 33.4216 18.6201C33.3616 18.4601 33.2816 18.2901 33.2016 18.1101C33.1216 17.9301 33.0216 17.7401 32.9116 17.5401C32.8016 17.3401 32.6816 17.1401 32.5516 16.9401C32.4216 16.7401 32.2716 16.5301 32.1116 16.3201C31.9616 16.1201 31.8016 15.9401 31.6316 15.7601C31.4716 15.5801 31.3016 15.4201 31.1216 15.2601C30.9416 15.1001 30.7616 14.9501 30.5716 14.8201C30.3816 14.6801 30.1816 14.5501 29.9716 14.4301C29.7616 14.3101 29.5516 14.1901 29.3216 14.0901C29.0916 13.9901 28.8616 13.8901 28.6216 13.8001C28.3816 13.7101 28.1216 13.6301 27.8616 13.5501C27.6016 13.4701 27.3216 13.4101 27.0416 13.3401C26.7916 13.2901 26.5316 13.2401 26.2516 13.2101C25.9716 13.1801 25.6816 13.1501 25.3816 13.1401C25.0816 13.1301 24.7716 13.1201 24.4516 13.1401C24.1316 13.1601 23.8116 13.1701 23.4816 13.2101C23.1516 13.2501 22.8216 13.2901 22.4916 13.3601C22.1616 13.4201 21.8316 13.5001 21.5016 13.6001C21.1716 13.6901 20.8516 13.8001 20.5416 13.9301C20.2316 14.0601 19.9216 14.2001 19.6216 14.3601C19.3216 14.5201 19.0416 14.7101 18.7816 14.9301C18.5216 15.1401 18.2716 15.3801 18.0516 15.6301C17.8216 15.8801 17.6116 16.1501 17.4216 16.4201C17.2316 16.7001 17.0516 16.9801 16.8916 17.2701C16.7316 17.5601 16.5916 17.8501 16.4616 18.1301C16.3316 18.4201 16.2216 18.7001 16.1216 18.9701C16.0216 19.2401 15.9416 19.5001 15.8716 19.7501C15.8016 20.0001 15.7516 20.2201 15.7116 20.4301C15.6616 20.6701 15.6216 20.9301 15.5816 21.2001C15.5416 21.4701 15.5016 21.7701 15.4716 22.0701C15.4416 22.3801 15.4216 22.7001 15.4016 23.0201C15.3816 23.3501 15.3716 23.6901 15.3716 24.0301C15.3716 24.3801 15.3716 24.7301 15.3916 25.0801C15.4116 25.4301 15.4316 25.7901 15.4716 26.1501C15.5116 26.5101 15.5616 26.8701 15.6216 27.2201C15.6816 27.5701 15.7616 27.9201 15.8416 28.2701C15.9316 28.6101 16.0316 28.9401 16.1416 29.2601C16.2516 29.5801 16.3816 29.8801 16.5216 30.1701C16.6616 30.4601 16.8216 30.7401 16.9816 31.0101C17.1516 31.2801 17.3316 31.5301 17.5216 31.7701C17.7116 32.0101 17.9216 32.2301 18.1416 32.4501C18.3616 32.6701 18.5916 32.8601 18.8416 33.0501C19.0816 33.2401 19.3416 33.4101 19.6116 33.5701C19.8816 33.7301 20.1616 33.8701 20.4616 34.0001C20.7916 34.1501 21.1416 34.2701 21.4916 34.3801C21.8416 34.4801 22.1916 34.5701 22.5516 34.6301C22.9016 34.6901 23.2616 34.7401 23.6216 34.7701C23.9716 34.8001 24.3316 34.8101 24.6716 34.8101C25.0216 34.8101 25.3616 34.7901 25.6916 34.7701C26.0216 34.7401 26.3416 34.7001 26.6516 34.6501C26.9616 34.6001 27.2616 34.5401 27.5416 34.4801C27.8216 34.4101 28.0816 34.3401 28.3316 34.2601C28.5716 34.1801 28.8116 34.0901 29.0516 33.9801C29.2816 33.8701 29.5116 33.7401 29.7416 33.6101C29.9616 33.4701 30.1816 33.3201 30.3816 33.1601C30.5916 33.0001 30.7816 32.8201 30.9616 32.6401C31.1416 32.4601 31.3216 32.2701 31.4716 32.0701C31.6316 31.8701 31.7716 31.6701 31.9016 31.4601C32.0316 31.2501 32.1416 31.0401 32.2316 30.8301C32.3216 30.6201 32.3916 30.4101 32.4416 30.1901C32.5116 29.9201 32.5516 29.6501 32.5716 29.3901C32.5916 29.1301 32.6016 28.8801 32.5816 28.6401C32.5616 28.4001 32.5316 28.1701 32.4816 27.9401C32.4316 27.7101 32.3616 27.5001 32.2716 27.3001C32.1816 27.1001 32.0816 26.9001 31.9516 26.7101C31.8316 26.5201 31.6916 26.3501 31.5316 26.1801C31.3816 26.0101 31.2016 25.8601 31.0216 25.7101C30.8316 25.5601 30.6316 25.4301 30.4216 25.3101C30.3816 25.6101 30.3216 25.9001 30.2516 26.1801C30.1816 26.4601 30.1016 26.7301 30.0116 26.9901C29.9216 27.2501 29.8216 27.5001 29.7016 27.7401C29.5916 27.9801 29.4616 28.2001 29.3216 28.4201C29.1816 28.6301 29.0416 28.8301 28.8816 29.0201C28.7216 29.2101 28.5516 29.3801 28.3816 29.5401C28.2016 29.7001 28.0116 29.8401 27.8216 29.9701C27.6216 30.1001 27.4116 30.2201 27.2016 30.3101C26.8816 30.4601 26.5416 30.5701 26.2016 30.6601C25.8616 30.7401 25.5116 30.7901 25.1616 30.8101C24.8116 30.8301 24.4616 30.8201 24.1116 30.7801C23.7616 30.7401 23.4216 30.6801 23.1016 30.5801C22.7716 30.4901 22.4516 30.3701 22.1516 30.2201C21.8516 30.0801 21.5716 29.9101 21.3116 29.7101C21.0516 29.5201 20.8116 29.3001 20.6116 29.0601C20.4016 28.8201 20.2316 28.5601 20.0816 28.2801C20.0016 28.1301 19.9316 27.9701 19.8816 27.8101C19.8216 27.6501 19.7716 27.4801 19.7416 27.3201C19.7116 27.1601 19.6816 26.9901 19.6616 26.8201C19.6416 26.6501 19.6416 26.4801 19.6416 26.3101C19.6416 26.1401 19.6616 25.9701 19.6816 25.8101C19.7016 25.6501 19.7416 25.4801 19.7816 25.3201C19.8216 25.1601 19.8816 25.0001 19.9416 24.8401C20.0016 24.6801 20.0816 24.5301 20.1616 24.3901C20.2216 24.2901 20.2916 24.1801 20.3716 24.0701C20.4516 23.9601 20.5516 23.8401 20.6616 23.7201C20.7716 23.6001 20.9016 23.4801 21.0416 23.3501C21.1816 23.2301 21.3416 23.1101 21.5216 22.9901C21.7016 22.8801 21.8916 22.7701 22.1116 22.6601C22.3216 22.5601 22.5616 22.4701 22.8116 22.3901C23.0716 22.3101 23.3416 22.2401 23.6416 22.1901C23.9416 22.1401 24.2716 22.1001 24.6116 22.0801C24.7816 22.0801 24.9416 22.0601 25.1016 22.0601C25.2616 22.0601 25.4216 22.0601 25.5816 22.0601C25.7416 22.0601 25.8916 22.0601 26.0516 22.0601C26.2016 22.0601 26.3616 22.0601 26.5116 22.0701C26.6616 22.0701 26.8116 22.0901 26.9616 22.1001C27.1116 22.1101 27.2516 22.1201 27.4016 22.1401C27.5416 22.1501 27.6816 22.1701 27.8216 22.1901C27.9616 22.2101 28.1016 22.2301 28.2316 22.2501C28.2016 22.0801 28.1716 21.9101 28.1216 21.7401C28.0816 21.5701 28.0216 21.3901 27.9616 21.2201C27.8916 21.0501 27.8216 20.8801 27.7316 20.7201C27.6416 20.5601 27.5416 20.4001 27.4216 20.2601C27.3016 20.1101 27.1716 19.9801 27.0216 19.8601C26.8716 19.7401 26.7116 19.6301 26.5216 19.5401C26.3416 19.4501 26.1416 19.3701 25.9116 19.3201C25.6916 19.2701 25.4516 19.2301 25.1816 19.2201C24.9416 19.2201 24.7216 19.2201 24.5116 19.2301C24.3016 19.2401 24.1016 19.2801 23.9216 19.3101C23.7416 19.3401 23.5716 19.4001 23.4216 19.4501C23.2616 19.5101 23.1216 19.5701 22.9916 19.6401C22.8616 19.7101 22.7416 19.7901 22.6316 19.8701C22.5216 19.9501 22.4216 20.0401 22.3416 20.1201C22.2516 20.2101 22.1716 20.3001 22.1016 20.3901C22.0316 20.4801 21.9716 20.5701 21.9116 20.6601L21.6716 20.5101L21.4316 20.3601L21.1916 20.2101L20.9516 20.0601L20.7116 19.9101L20.4716 19.7601L20.2316 19.6101L19.9916 19.4601C20.0516 19.3601 20.1316 19.2401 20.2216 19.1201C20.3116 18.9901 20.4316 18.8601 20.5516 18.7201C20.6816 18.5801 20.8316 18.4301 21.0016 18.2901C21.1716 18.1501 21.3616 18.0001 21.5716 17.8701C21.7816 17.7401 22.0116 17.6001 22.2716 17.4901C22.5316 17.3801 22.8116 17.2701 23.1116 17.1901C23.4116 17.1101 23.7416 17.0401 24.1016 17.0001C24.4616 16.9601 24.8416 16.9501 25.2516 16.9601C25.6316 16.9701 26.0016 17.0201 26.3416 17.1001C26.6816 17.1801 27.0216 17.2901 27.3316 17.4301C27.6416 17.5701 27.9316 17.7401 28.2016 17.9401C28.4716 18.1401 28.7216 18.3701 28.9516 18.6201C29.1816 18.8701 29.3816 19.1601 29.5616 19.4601C29.7416 19.7701 29.9016 20.1001 30.0316 20.4501C30.1616 20.8001 30.2716 21.1801 30.3516 21.5801C30.4316 21.9801 30.4816 22.4001 30.5116 22.8401C30.9316 23.0101 31.3216 23.2001 31.6816 23.4201C32.0416 23.6401 32.3716 23.8801 32.6716 24.1501C32.9716 24.4101 33.2416 24.7001 33.4816 25.0001C33.7216 25.3001 33.9316 25.6301 34.1116 25.9601C34.2916 26.3001 34.4316 26.6501 34.5416 27.0201C34.6516 27.3901 34.7316 27.7701 34.7716 28.1601C34.8116 28.5501 34.8216 28.9601 34.7916 29.3701C34.7616 29.7801 34.7016 30.2101 34.5916 30.6301C34.5216 30.9401 34.4216 31.2501 34.2916 31.5501C34.1716 31.8501 34.0216 32.1501 33.8516 32.4401C33.6816 32.7301 33.4916 33.0101 33.2816 33.2901C33.0716 33.5601 32.8416 33.8301 32.5916 34.0801C32.3416 34.3301 32.0816 34.5701 31.8016 34.7901C31.5216 35.0101 31.2316 35.2201 30.9316 35.4101C30.6316 35.6001 30.3116 35.7701 29.9916 35.9201C29.6716 36.0701 29.3316 36.2001 29.0016 36.3101C28.8516 36.3601 28.6916 36.4001 28.5316 36.4501C28.3716 36.4901 28.2016 36.5401 28.0316 36.5801C27.8616 36.6201 27.6916 36.6601 27.5116 36.6901C27.3316 36.7201 27.1516 36.7601 26.9716 36.7901C26.7916 36.8201 26.6016 36.8501 26.4116 36.8701C26.2216 36.8901 26.0216 36.9101 25.8316 36.9301C25.6316 36.9501 25.4316 36.9601 25.2316 36.9701C25.0316 36.9701 24.8316 36.9801 24.6216 36.9801L24.5816 37.0701ZM25.6716 24.3501C25.5116 24.3501 25.3416 24.3501 25.1616 24.3501C24.9916 24.3501 24.8116 24.3601 24.6416 24.3801C24.4716 24.4001 24.2916 24.4101 24.1216 24.4401C23.9516 24.4701 23.7816 24.5001 23.6116 24.5401C23.4416 24.5801 23.2816 24.6301 23.1316 24.6901C22.9816 24.7501 22.8316 24.8201 22.7016 24.9101C22.5716 24.9901 22.4416 25.0901 22.3316 25.2001C22.2216 25.3101 22.1216 25.4401 22.0416 25.5801C22.0016 25.6501 21.9716 25.7101 21.9416 25.7801C21.9116 25.8501 21.8916 25.9201 21.8716 25.9901C21.8516 26.0601 21.8416 26.1401 21.8316 26.2101C21.8216 26.2901 21.8116 26.3601 21.8116 26.4401C21.8116 26.5201 21.8116 26.5901 21.8216 26.6701C21.8216 26.7501 21.8416 26.8201 21.8616 26.9001C21.8816 26.9801 21.9016 27.0501 21.9316 27.1201C21.9616 27.1901 21.9916 27.2701 22.0216 27.3401C22.0916 27.4801 22.1916 27.6201 22.3116 27.7401C22.4316 27.8601 22.5716 27.9701 22.7216 28.0701C22.8716 28.1701 23.0416 28.2601 23.2216 28.3301C23.4016 28.4001 23.5916 28.4701 23.7916 28.5101C23.9916 28.5501 24.2016 28.5901 24.4016 28.6101C24.6116 28.6301 24.8216 28.6301 25.0316 28.6101C25.2416 28.6001 25.4516 28.5701 25.6516 28.5201C25.8516 28.4701 26.0416 28.4101 26.2316 28.3201C26.3716 28.2601 26.5116 28.1801 26.6316 28.0901C26.7616 28.0001 26.8816 27.9001 26.9916 27.7801C27.1016 27.6601 27.2116 27.5401 27.3116 27.4001C27.4116 27.2601 27.5016 27.1101 27.5916 26.9501C27.6716 26.7901 27.7516 26.6201 27.8216 26.4401C27.8916 26.2601 27.9516 26.0701 28.0116 25.8701C28.0616 25.6701 28.1116 25.4601 28.1516 25.2401C28.1916 25.0201 28.2216 24.8001 28.2416 24.5601C28.1416 24.5401 28.0516 24.5201 27.9516 24.5101C27.8516 24.4901 27.7516 24.4801 27.6516 24.4601C27.5516 24.4501 27.4516 24.4301 27.3416 24.4201C27.2416 24.4101 27.1316 24.4001 27.0216 24.3901C26.9116 24.3901 26.8116 24.3701 26.7016 24.3601C26.5916 24.3601 26.4816 24.3501 26.3716 24.3401C26.2616 24.3401 26.1416 24.3401 26.0316 24.3301C25.9216 24.3201 25.8016 24.3301 25.6816 24.3301L25.6716 24.3501Z" fill="white"/>
</svg>
