<svg width="80" height="80" viewBox="0 0 80 80" fill="none" xmlns="http://www.w3.org/2000/svg">
<rect width="80" height="80" rx="40" fill="#2D2F30" fill-opacity="0.1"/>
<path d="M35.466 53.3999L50.7994 38.0666L48.1327 35.3999L35.5327 47.9999L28.866 41.3333L26.1327 44.0666L35.466 53.3999ZM24.7327 61.3333C20.8216 61.3333 17.4993 59.9666 14.766 57.2333C12.0327 54.4999 10.666 51.1777 10.666 47.2666C10.666 43.7999 11.7771 40.7555 13.9993 38.1333C16.2216 35.5111 19.0438 33.9333 22.466 33.3999C23.3549 29.0888 25.4438 25.5666 28.7327 22.8333C32.0216 20.0999 35.8216 18.7333 40.1327 18.7333C45.1105 18.7333 49.3105 20.5444 52.7327 24.1666C56.1549 27.7888 57.866 32.1333 57.866 37.1999V38.7999C61.066 38.7111 63.7771 39.7444 65.9994 41.8999C68.2216 44.0555 69.3327 46.7777 69.3327 50.0666C69.3327 53.1333 68.2216 55.7777 65.9994 57.9999C63.7771 60.2222 61.1327 61.3333 58.066 61.3333H24.7327ZM24.7327 57.3333H58.066C60.066 57.3333 61.7771 56.6222 63.1994 55.1999C64.6216 53.7777 65.3327 52.0666 65.3327 50.0666C65.3327 48.0666 64.6216 46.3555 63.1994 44.9333C61.7771 43.5111 60.066 42.7999 58.066 42.7999H53.866V37.1999C53.866 33.1555 52.5105 29.7333 49.7994 26.9333C47.0882 24.1333 43.7771 22.7333 39.866 22.7333C35.9549 22.7333 32.6327 24.1333 29.8993 26.9333C27.166 29.7333 25.7993 33.1555 25.7993 37.1999H24.5327C21.7771 37.1999 19.4438 38.1666 17.5327 40.0999C15.6216 42.0333 14.666 44.4222 14.666 47.2666C14.666 50.0666 15.6438 52.4444 17.5993 54.3999C19.5549 56.3555 21.9327 57.3333 24.7327 57.3333Z" fill="#1F1F1F"/>
</svg>
