<svg width="37" height="37" viewBox="0 0 37 37" fill="none" xmlns="http://www.w3.org/2000/svg">
<rect x="0.5" y="0.689453" width="36" height="36" rx="18" fill="#CBCED0"/>
<path d="M15.8 28.6895L15.4 25.4895C15.1833 25.4061 14.9792 25.3061 14.7875 25.1895C14.5958 25.0728 14.4083 24.9478 14.225 24.8145L11.25 26.0645L8.5 21.3145L11.075 19.3645C11.0583 19.2478 11.05 19.1353 11.05 19.027V18.352C11.05 18.2436 11.0583 18.1311 11.075 18.0145L8.5 16.0645L11.25 11.3145L14.225 12.5645C14.4083 12.4311 14.6 12.3061 14.8 12.1895C15 12.0728 15.2 11.9728 15.4 11.8895L15.8 8.68945H21.3L21.7 11.8895C21.9167 11.9728 22.1208 12.0728 22.3125 12.1895C22.5042 12.3061 22.6917 12.4311 22.875 12.5645L25.85 11.3145L28.6 16.0645L26.025 18.0145C26.0417 18.1311 26.05 18.2436 26.05 18.352V19.027C26.05 19.1353 26.0333 19.2478 26 19.3645L28.575 21.3145L25.825 26.0645L22.875 24.8145C22.6917 24.9478 22.5 25.0728 22.3 25.1895C22.1 25.3061 21.9 25.4061 21.7 25.4895L21.3 28.6895H15.8ZM17.55 26.6895H19.525L19.875 24.0395C20.3917 23.9061 20.8708 23.7103 21.3125 23.452C21.7542 23.1936 22.1583 22.8811 22.525 22.5145L25 23.5395L25.975 21.8395L23.825 20.2145C23.9083 19.9811 23.9667 19.7353 24 19.477C24.0333 19.2186 24.05 18.9561 24.05 18.6895C24.05 18.4228 24.0333 18.1603 24 17.902C23.9667 17.6436 23.9083 17.3978 23.825 17.1645L25.975 15.5395L25 13.8395L22.525 14.8895C22.1583 14.5061 21.7542 14.1853 21.3125 13.927C20.8708 13.6686 20.3917 13.4728 19.875 13.3395L19.55 10.6895H17.575L17.225 13.3395C16.7083 13.4728 16.2292 13.6686 15.7875 13.927C15.3458 14.1853 14.9417 14.4978 14.575 14.8645L12.1 13.8395L11.125 15.5395L13.275 17.1395C13.1917 17.3895 13.1333 17.6395 13.1 17.8895C13.0667 18.1395 13.05 18.4061 13.05 18.6895C13.05 18.9561 13.0667 19.2145 13.1 19.4645C13.1333 19.7145 13.1917 19.9645 13.275 20.2145L11.125 21.8395L12.1 23.5395L14.575 22.4895C14.9417 22.8728 15.3458 23.1936 15.7875 23.452C16.2292 23.7103 16.7083 23.9061 17.225 24.0395L17.55 26.6895ZM18.6 22.1895C19.5667 22.1895 20.3917 21.8478 21.075 21.1645C21.7583 20.4811 22.1 19.6561 22.1 18.6895C22.1 17.7228 21.7583 16.8978 21.075 16.2145C20.3917 15.5311 19.5667 15.1895 18.6 15.1895C17.6167 15.1895 16.7875 15.5311 16.1125 16.2145C15.4375 16.8978 15.1 17.7228 15.1 18.6895C15.1 19.6561 15.4375 20.4811 16.1125 21.1645C16.7875 21.8478 17.6167 22.1895 18.6 22.1895Z" fill="#6F7173"/>
</svg>
