<svg width="37" height="37" viewBox="0 0 37 37" fill="none" xmlns="http://www.w3.org/2000/svg">
<rect x="0.5" y="0.689453" width="36" height="36" rx="18" fill="#CBCED0"/>
<path d="M21.5002 27.6895H27.5002V26.8645C27.0835 26.4811 26.6169 26.1895 26.1002 25.9895C25.5835 25.7895 25.0502 25.6895 24.5002 25.6895C23.9502 25.6895 23.4169 25.7895 22.9002 25.9895C22.3835 26.1895 21.9169 26.4811 21.5002 26.8645V27.6895ZM24.5002 24.6895C24.9169 24.6895 25.271 24.5436 25.5627 24.252C25.8544 23.9603 26.0002 23.6061 26.0002 23.1895C26.0002 22.7728 25.8544 22.4186 25.5627 22.127C25.271 21.8353 24.9169 21.6895 24.5002 21.6895C24.0835 21.6895 23.7294 21.8353 23.4377 22.127C23.146 22.4186 23.0002 22.7728 23.0002 23.1895C23.0002 23.6061 23.146 23.9603 23.4377 24.252C23.7294 24.5436 24.0835 24.6895 24.5002 24.6895ZM18.5502 15.1895C17.5835 15.1895 16.7585 15.5311 16.0752 16.2145C15.3919 16.8978 15.0502 17.7228 15.0502 18.6895C15.0502 19.4895 15.2752 20.1895 15.7252 20.7895C16.1752 21.3895 16.7669 21.8061 17.5002 22.0395C17.5002 21.6561 17.5044 21.2895 17.5127 20.9395C17.521 20.5895 17.5919 20.2728 17.7252 19.9895C17.4919 19.8561 17.321 19.6728 17.2127 19.4395C17.1044 19.2061 17.0502 18.9561 17.0502 18.6895C17.0502 18.2728 17.196 17.9186 17.4877 17.627C17.7794 17.3353 18.1335 17.1895 18.5502 17.1895C18.8002 17.1895 19.0377 17.252 19.2627 17.377C19.4877 17.502 19.6752 17.6728 19.8252 17.8895C20.0085 17.8061 20.2002 17.7478 20.4002 17.7145C20.6002 17.6811 20.8002 17.6645 21.0002 17.6645H21.9002C21.6835 16.9478 21.271 16.3561 20.6627 15.8895C20.0544 15.4228 19.3502 15.1895 18.5502 15.1895ZM15.7502 28.6895L15.3502 25.4895C15.1335 25.4061 14.9294 25.3061 14.7377 25.1895C14.546 25.0728 14.3585 24.9478 14.1752 24.8145L11.2002 26.0645L8.4502 21.3145L11.0252 19.3645C11.0085 19.2478 11.0002 19.1353 11.0002 19.027V18.352C11.0002 18.2436 11.0085 18.1311 11.0252 18.0145L8.4502 16.0645L11.2002 11.3145L14.1752 12.5645C14.3585 12.4311 14.5502 12.3061 14.7502 12.1895C14.9502 12.0728 15.1502 11.9728 15.3502 11.8895L15.7502 8.68945H21.2502L21.6502 11.8895C21.8669 11.9728 22.071 12.0728 22.2627 12.1895C22.4544 12.3061 22.6419 12.4311 22.8252 12.5645L25.8002 11.3145L28.5502 16.0645L26.4252 17.6895H23.9002C23.8835 17.6061 23.8669 17.5186 23.8502 17.427C23.8335 17.3353 23.8085 17.2478 23.7752 17.1645L25.9252 15.5395L24.9502 13.8395L22.4752 14.8895C22.1085 14.5061 21.7044 14.1853 21.2627 13.927C20.821 13.6686 20.3419 13.4728 19.8252 13.3395L19.5002 10.6895H17.5252L17.1752 13.3395C16.6585 13.4728 16.1794 13.6686 15.7377 13.927C15.296 14.1853 14.8919 14.4978 14.5252 14.8645L12.0502 13.8395L11.0752 15.5395L13.2252 17.1395C13.1419 17.3895 13.0835 17.6395 13.0502 17.8895C13.0169 18.1395 13.0002 18.4061 13.0002 18.6895C13.0002 18.9561 13.0169 19.2145 13.0502 19.4645C13.0835 19.7145 13.1419 19.9645 13.2252 20.2145L11.0752 21.8395L12.0502 23.5395L14.5252 22.4895C14.9252 22.9061 15.3752 23.2561 15.8752 23.5395C16.3752 23.8228 16.9169 24.0061 17.5002 24.0895V28.6895H15.7502ZM21.0002 29.6895C20.5835 29.6895 20.2294 29.5436 19.9377 29.252C19.646 28.9603 19.5002 28.6061 19.5002 28.1895V21.1895C19.5002 20.7728 19.646 20.4186 19.9377 20.127C20.2294 19.8353 20.5835 19.6895 21.0002 19.6895H28.0002C28.4169 19.6895 28.771 19.8353 29.0627 20.127C29.3544 20.4186 29.5002 20.7728 29.5002 21.1895V28.1895C29.5002 28.6061 29.3544 28.9603 29.0627 29.252C28.771 29.5436 28.4169 29.6895 28.0002 29.6895H21.0002Z" fill="#6F7173"/>
</svg>
