<svg width="48" height="48" viewBox="0 0 48 48" fill="none" xmlns="http://www.w3.org/2000/svg">
<path d="M24.0105 1.31005C14.5405 1.31005 11.7705 1.31005 11.2305 1.36005C9.29055 1.52005 8.08055 1.83005 6.76055 2.48005C5.74055 2.98005 4.94055 3.57005 4.15055 4.39005C2.71055 5.88005 1.84055 7.72005 1.52055 9.91005C1.37055 10.97 1.32055 11.19 1.31055 16.61C1.31055 18.42 1.31055 20.79 1.31055 23.98C1.31055 33.4501 1.32055 36.21 1.37055 36.75C1.53055 38.64 1.82055 39.8301 2.45055 41.1301C3.65055 43.6201 5.94055 45.49 8.65055 46.19C9.59055 46.43 10.6205 46.5601 11.9405 46.6301C12.5005 46.6501 18.2305 46.67 23.9605 46.67C29.6905 46.67 35.4205 46.67 35.9705 46.64C37.5105 46.57 38.4005 46.45 39.3805 46.19C42.1005 45.49 44.3505 43.65 45.5805 41.12C46.2005 39.85 46.5105 38.6101 46.6505 36.82C46.6805 36.43 46.6905 30.2 46.6905 23.97C46.6905 17.74 46.6805 11.52 46.6505 11.13C46.5105 9.31005 46.1905 8.08005 45.5605 6.79005C45.0405 5.73005 44.4605 4.94005 43.6205 4.13005C42.1205 2.70005 40.2805 1.82005 38.1005 1.51005C37.0405 1.36005 36.8305 1.31005 31.4005 1.30005H24.0105V1.31005Z" fill="url(#paint0_radial_751_6456)"/>
<path d="M24.0105 1.32006C14.5405 1.32006 11.7705 1.32006 11.2305 1.37006C9.29055 1.53006 8.08055 1.84006 6.76055 2.49006C5.74055 2.99006 4.94055 3.58006 4.15055 4.40006C2.71055 5.89006 1.84055 7.73006 1.52055 9.92006C1.37055 10.9801 1.32055 11.2001 1.31055 16.6201C1.31055 18.4301 1.31055 20.8001 1.31055 23.9901C1.31055 33.4601 1.32055 36.2201 1.37055 36.7601C1.53055 38.6501 1.82055 39.8401 2.45055 41.1401C3.65055 43.6301 5.94055 45.5001 8.65055 46.2001C9.59055 46.4401 10.6205 46.5701 11.9405 46.6401C12.5005 46.6601 18.2305 46.6801 23.9605 46.6801C29.6905 46.6801 35.4205 46.6801 35.9705 46.6501C37.5105 46.5801 38.4005 46.4601 39.3805 46.2001C42.1005 45.5001 44.3505 43.6601 45.5805 41.1301C46.2005 39.8601 46.5105 38.6201 46.6505 36.8301C46.6805 36.4401 46.6905 30.2101 46.6905 23.9801C46.6905 17.7501 46.6805 11.5301 46.6505 11.1401C46.5105 9.32006 46.1905 8.09006 45.5605 6.80006C45.0405 5.74006 44.4605 4.95006 43.6205 4.14006C42.1205 2.71006 40.2805 1.83006 38.1005 1.52006C37.0405 1.37006 36.8305 1.32006 31.4005 1.31006H24.0105V1.32006Z" fill="url(#paint1_radial_751_6456)"/>
<path d="M24.0002 7.25C19.4502 7.25 18.8802 7.27 17.0902 7.35C15.3102 7.43 14.0902 7.71 13.0202 8.13C11.9202 8.56 10.9802 9.13 10.0502 10.06C9.12023 10.99 8.55023 11.93 8.12023 13.03C7.70023 14.1 7.42023 15.31 7.34023 17.1C7.26023 18.89 7.24023 19.46 7.24023 24.01C7.24023 28.56 7.26023 29.13 7.34023 30.92C7.42023 32.7 7.70023 33.92 8.12023 34.99C8.55023 36.09 9.12023 37.03 10.0502 37.96C10.9802 38.89 11.9202 39.47 13.0202 39.89C14.0902 40.3 15.3002 40.59 17.0902 40.67C18.8802 40.75 19.4502 40.77 24.0002 40.77C28.5502 40.77 29.1202 40.75 30.9102 40.67C32.6902 40.59 33.9102 40.31 34.9802 39.89C36.0802 39.46 37.0102 38.89 37.9502 37.96C38.8802 37.03 39.4502 36.09 39.8802 34.99C40.2902 33.92 40.5702 32.71 40.6602 30.92C40.7402 29.13 40.7602 28.56 40.7602 24.01C40.7602 19.46 40.7402 18.89 40.6602 17.1C40.5802 15.32 40.2902 14.1 39.8802 13.03C39.4502 11.93 38.8802 10.99 37.9502 10.06C37.0202 9.13 36.0902 8.56 34.9802 8.13C33.9102 7.72 32.6902 7.43 30.9102 7.35C29.1202 7.27 28.5502 7.25 24.0002 7.25ZM22.5002 10.27C22.9502 10.27 23.4402 10.27 24.0002 10.27C28.4702 10.27 29.0002 10.29 30.7702 10.37C32.4002 10.44 33.2902 10.72 33.8802 10.95C34.6602 11.25 35.2202 11.62 35.8102 12.2C36.4002 12.79 36.7602 13.34 37.0602 14.13C37.2902 14.72 37.5602 15.61 37.6402 17.24C37.7202 19.01 37.7402 19.54 37.7402 24.01C37.7402 28.48 37.7202 29.01 37.6402 30.78C37.5702 32.41 37.2902 33.3 37.0602 33.89C36.7602 34.67 36.3902 35.23 35.8102 35.81C35.2202 36.4 34.6702 36.76 33.8802 37.06C33.2902 37.29 32.4002 37.56 30.7702 37.64C29.0002 37.72 28.4702 37.74 24.0002 37.74C19.5302 37.74 19.0002 37.72 17.2302 37.64C15.6002 37.56 14.7102 37.29 14.1202 37.06C13.3402 36.76 12.7802 36.39 12.1902 35.81C11.6002 35.22 11.2402 34.67 10.9402 33.88C10.7102 33.29 10.4402 32.4 10.3602 30.77C10.2802 29 10.2602 28.47 10.2602 24C10.2602 19.53 10.2802 19 10.3602 17.23C10.4302 15.6 10.7102 14.71 10.9402 14.12C11.2402 13.34 11.6102 12.78 12.1902 12.19C12.7802 11.6 13.3302 11.24 14.1202 10.94C14.7102 10.71 15.6002 10.44 17.2302 10.36C18.7802 10.29 19.3702 10.27 22.5002 10.27ZM32.9402 13.05C31.8302 13.05 30.9302 13.95 30.9302 15.06C30.9302 16.17 31.8302 17.07 32.9402 17.07C34.0502 17.07 34.9502 16.17 34.9502 15.06C34.9502 13.95 34.0502 13.05 32.9402 13.05ZM24.0002 15.4C19.2502 15.4 15.4002 19.25 15.4002 24C15.4002 28.75 19.2502 32.6 24.0002 32.6C28.7502 32.6 32.6002 28.75 32.6002 24C32.6002 19.25 28.7502 15.4 24.0002 15.4ZM24.0002 18.42C27.0802 18.42 29.5802 20.92 29.5802 24C29.5802 27.08 27.0802 29.58 24.0002 29.58C20.9202 29.58 18.4202 27.08 18.4202 24C18.4202 20.92 20.9202 18.42 24.0002 18.42Z" fill="white"/>
<defs>
<radialGradient id="paint0_radial_751_6456" cx="0" cy="0" r="1" gradientUnits="userSpaceOnUse" gradientTransform="translate(12.3213 49.6484) rotate(-90) scale(44.9262 41.7496)">
<stop stop-color="#FFDD46"/>
<stop offset="0.1" stop-color="#FFDD46"/>
<stop offset="0.5" stop-color="#FF533A"/>
<stop offset="1" stop-color="#E734AF"/>
</radialGradient>
<radialGradient id="paint1_radial_751_6456" cx="0" cy="0" r="1" gradientUnits="userSpaceOnUse" gradientTransform="translate(-6.06429 6.09032) rotate(78.68) scale(20.1941 82.8185)">
<stop stop-color="#0072CB"/>
<stop offset="0.13" stop-color="#0072CB"/>
<stop offset="1" stop-color="#7800FF" stop-opacity="0"/>
</radialGradient>
</defs>
</svg>
