<svg width="48" height="48" viewBox="0 0 48 48" fill="none" xmlns="http://www.w3.org/2000/svg">
<g clip-path="url(#clip0_751_5328)">
<path d="M45.9808 28.9973C48.7387 16.8581 41.1338 4.78166 28.9946 2.02372C16.8555 -0.73423 4.77899 6.87073 2.02105 19.0099C-0.736899 31.149 6.86807 43.2255 19.0072 45.9834C31.1464 48.7414 43.2228 41.1364 45.9808 28.9973Z" fill="black" fill-opacity="0.5"/>
<path d="M30.6895 34.69H33.1195L17.4195 13.2H14.8095L30.6895 34.69ZM32.2295 10.62H36.6195L27.0295 21.97L38.3095 37.41H29.4795L22.5595 28.04L14.6395 37.41H10.2495L20.5095 25.27L9.68945 10.62H18.7495L24.9995 19.18L32.2295 10.62Z" fill="white"/>
</g>
<defs>
<clipPath id="clip0_751_5328">
<rect width="48" height="48" fill="white"/>
</clipPath>
</defs>
</svg>
