<svg width="16" height="16" viewBox="0 0 16 16" fill="none" xmlns="http://www.w3.org/2000/svg">
<path d="M3.15485 13.0031C2.9979 12.9032 2.9765 12.8461 3.0193 12.6606C3.21193 11.883 3.40455 11.1054 3.6043 10.3206C3.61857 10.2636 3.65424 10.1993 3.69705 10.1565C5.50199 8.3516 7.30694 6.54666 9.11188 4.74171C9.13328 4.72031 9.15469 4.70604 9.16895 4.69177C9.88237 5.40519 10.5958 6.11861 11.3235 6.84629C11.3021 6.86056 11.2664 6.87483 11.2379 6.90336C9.44719 8.69404 7.65651 10.4847 5.86584 12.2754C5.80876 12.3325 5.73029 12.3753 5.65181 12.3967C4.87419 12.5964 4.1037 12.7891 3.32607 12.9817C3.30467 12.9888 3.2904 12.9959 3.269 13.0031C3.23333 13.0031 3.19052 13.0031 3.15485 13.0031Z" fill="white"/>
<path d="M12.9995 4.83444C12.9853 4.88437 12.9781 4.94145 12.9567 4.99139C12.8925 5.12694 12.8426 5.27675 12.7427 5.38377C12.4787 5.662 12.2005 5.92596 11.9294 6.18279C11.2302 5.48364 10.5168 4.77023 9.81055 4.06395C10.0745 3.79285 10.3242 3.50748 10.6096 3.25065C10.9877 2.90821 11.6226 2.92248 12.0007 3.25779C12.2576 3.49321 12.5001 3.74291 12.7427 3.9926C12.8925 4.14956 12.9496 4.34931 12.9995 4.5562C12.9995 4.64895 12.9995 4.74169 12.9995 4.83444Z" fill="white"/>
</svg>
