<svg width="80" height="80" viewBox="0 0 80 80" fill="none" xmlns="http://www.w3.org/2000/svg">
<rect width="80" height="80" rx="40" fill="#2D2F30" fill-opacity="0.1"/>
<path d="M63.8673 64L49.8006 49.9334C48.0229 51.3556 45.9895 52.5 43.7006 53.3667C41.4118 54.2334 39.0673 54.6667 36.6673 54.6667C33.0673 54.6667 29.7562 53.8112 26.734 52.1C23.7118 50.3889 21.2673 48.1334 19.4007 45.3334H24.4673C26.0229 46.9778 27.8451 48.2778 29.934 49.2334C32.0229 50.1889 34.2673 50.6667 36.6673 50.6667C41.2895 50.6667 45.2229 49.0334 48.4673 45.7667C51.7118 42.5 53.334 38.5778 53.334 34C53.334 29.3778 51.7118 25.4445 48.4673 22.2C45.2229 18.9556 41.2895 17.3334 36.6673 17.3334C32.1784 17.3334 28.3229 18.8889 25.1007 22C21.8784 25.1112 20.1784 28.8889 20.0007 33.3334H16.0007C16.1784 27.7778 18.2562 23.0556 22.234 19.1667C26.2118 15.2778 31.0229 13.3334 36.6673 13.3334C42.4007 13.3334 47.2784 15.3445 51.3006 19.3667C55.3229 23.3889 57.334 28.2667 57.334 34C57.334 36.4 56.9007 38.7445 56.034 41.0334C55.1673 43.3223 54.0229 45.3556 52.6006 47.1334L66.6673 61.2L63.8673 64ZM34.4673 45.3334L30.2673 31.4667L26.8007 41.3334H13.334V37.3334H24.0007L28.4007 24.6667H32.4007L36.4673 38.2667L39.334 29.3334H43.334L47.334 37.3334H49.334V41.3334H44.8673L41.734 35.0667L38.4007 45.3334H34.4673Z" fill="#1F1F1F"/>
</svg>
