<svg width="80" height="80" viewBox="0 0 80 80" fill="none" xmlns="http://www.w3.org/2000/svg">
<rect width="80" height="80" rx="40" fill="#2D2F30" fill-opacity="0.1"/>
<path d="M27.334 16C29.8673 16 32.2118 16.6 34.3673 17.8C36.5229 19 38.4007 20.7333 40.0006 23C41.8673 20.6 43.8451 18.8333 45.934 17.7C48.0229 16.5667 50.2673 16 52.6673 16C56.6229 16 59.9451 17.3444 62.634 20.0333C65.3229 22.7222 66.6673 26.0667 66.6673 30.0667C66.6673 30.7333 66.634 31.3889 66.5673 32.0333C66.5006 32.6778 66.3784 33.3333 66.2006 34H62.0673C62.2895 33.3333 62.4451 32.6778 62.534 32.0333C62.6229 31.3889 62.6673 30.7333 62.6673 30.0667C62.6673 27.1333 61.734 24.7222 59.8673 22.8333C58.0006 20.9444 55.6006 20 52.6673 20C50.4007 20 48.2895 20.7 46.334 22.1C44.3784 23.5 42.8006 25.4667 41.6006 28H38.334C37.1784 25.5111 35.6229 23.5556 33.6673 22.1333C31.7118 20.7111 29.6007 20 27.334 20C24.4007 20 22.0007 20.9444 20.134 22.8333C18.2673 24.7222 17.334 27.1333 17.334 30.0667C17.334 30.7333 17.3784 31.3889 17.4673 32.0333C17.5562 32.6778 17.7118 33.3333 17.934 34H13.8007C13.6229 33.3333 13.5007 32.6778 13.434 32.0333C13.3673 31.3889 13.334 30.7333 13.334 30.0667C13.334 26.0667 14.6784 22.7222 17.3673 20.0333C20.0562 17.3444 23.3784 16 27.334 16ZM20.8007 46H26.0007C27.6895 47.8667 29.6784 49.9 31.9673 52.1C34.2562 54.3 36.934 56.8 40.0006 59.6C43.0673 56.8 45.734 54.3 48.0006 52.1C50.2673 49.9 52.2451 47.8667 53.934 46H59.2006C57.334 48.1778 55.0673 50.5889 52.4007 53.2333C49.734 55.8778 46.5118 58.9333 42.734 62.4L40.0006 64.8667L37.2673 62.4C33.4895 58.9333 30.2673 55.8778 27.6007 53.2333C24.934 50.5889 22.6673 48.1778 20.8007 46ZM37.4673 50C37.8673 50 38.2229 49.8778 38.534 49.6333C38.8451 49.3889 39.0673 49.0667 39.2006 48.6667L43.2673 36.6L46.334 41.1333C46.5562 41.4 46.8006 41.6111 47.0673 41.7667C47.334 41.9222 47.6451 42 48.0006 42H68.6673V38H49.134L44.334 30.9333C44.1118 30.6222 43.8451 30.4 43.534 30.2667C43.2229 30.1333 42.8895 30.0667 42.534 30.0667C42.134 30.0667 41.7673 30.1889 41.434 30.4333C41.1006 30.6778 40.8673 31 40.734 31.4L36.734 43.4667L33.6006 38.8667C33.3784 38.6 33.1451 38.3889 32.9007 38.2333C32.6562 38.0778 32.3562 38 32.0007 38H11.334V42H30.8006L35.6006 49.1333C35.8229 49.4444 36.1006 49.6667 36.434 49.8C36.7673 49.9333 37.1118 50 37.4673 50Z" fill="#1F1F1F"/>
</svg>
