<svg width="60" height="60" viewBox="0 0 60 60" fill="none" xmlns="http://www.w3.org/2000/svg">
<rect width="60" height="60" rx="30" fill="#CBCED0"/>
<path d="M33.0002 39H39.0002V38.175C38.5835 37.7917 38.1169 37.5 37.6002 37.3C37.0835 37.1 36.5502 37 36.0002 37C35.4502 37 34.9169 37.1 34.4002 37.3C33.8835 37.5 33.4169 37.7917 33.0002 38.175V39ZM36.0002 36C36.4169 36 36.771 35.8542 37.0627 35.5625C37.3544 35.2708 37.5002 34.9167 37.5002 34.5C37.5002 34.0833 37.3544 33.7292 37.0627 33.4375C36.771 33.1458 36.4169 33 36.0002 33C35.5835 33 35.2294 33.1458 34.9377 33.4375C34.646 33.7292 34.5002 34.0833 34.5002 34.5C34.5002 34.9167 34.646 35.2708 34.9377 35.5625C35.2294 35.8542 35.5835 36 36.0002 36ZM30.0502 26.5C29.0835 26.5 28.2585 26.8417 27.5752 27.525C26.8919 28.2083 26.5502 29.0333 26.5502 30C26.5502 30.8 26.7752 31.5 27.2252 32.1C27.6752 32.7 28.2669 33.1167 29.0002 33.35C29.0002 32.9667 29.0044 32.6 29.0127 32.25C29.021 31.9 29.0919 31.5833 29.2252 31.3C28.9919 31.1667 28.821 30.9833 28.7127 30.75C28.6044 30.5167 28.5502 30.2667 28.5502 30C28.5502 29.5833 28.696 29.2292 28.9877 28.9375C29.2794 28.6458 29.6335 28.5 30.0502 28.5C30.3002 28.5 30.5377 28.5625 30.7627 28.6875C30.9877 28.8125 31.1752 28.9833 31.3252 29.2C31.5085 29.1167 31.7002 29.0583 31.9002 29.025C32.1002 28.9917 32.3002 28.975 32.5002 28.975H33.4002C33.1835 28.2583 32.771 27.6667 32.1627 27.2C31.5544 26.7333 30.8502 26.5 30.0502 26.5ZM27.2502 40L26.8502 36.8C26.6335 36.7167 26.4294 36.6167 26.2377 36.5C26.046 36.3833 25.8585 36.2583 25.6752 36.125L22.7002 37.375L19.9502 32.625L22.5252 30.675C22.5085 30.5583 22.5002 30.4458 22.5002 30.3375V29.6625C22.5002 29.5542 22.5085 29.4417 22.5252 29.325L19.9502 27.375L22.7002 22.625L25.6752 23.875C25.8585 23.7417 26.0502 23.6167 26.2502 23.5C26.4502 23.3833 26.6502 23.2833 26.8502 23.2L27.2502 20H32.7502L33.1502 23.2C33.3669 23.2833 33.571 23.3833 33.7627 23.5C33.9544 23.6167 34.1419 23.7417 34.3252 23.875L37.3002 22.625L40.0502 27.375L37.9252 29H35.4002C35.3835 28.9167 35.3669 28.8292 35.3502 28.7375C35.3335 28.6458 35.3085 28.5583 35.2752 28.475L37.4252 26.85L36.4502 25.15L33.9752 26.2C33.6085 25.8167 33.2044 25.4958 32.7627 25.2375C32.321 24.9792 31.8419 24.7833 31.3252 24.65L31.0002 22H29.0252L28.6752 24.65C28.1585 24.7833 27.6794 24.9792 27.2377 25.2375C26.796 25.4958 26.3919 25.8083 26.0252 26.175L23.5502 25.15L22.5752 26.85L24.7252 28.45C24.6419 28.7 24.5835 28.95 24.5502 29.2C24.5169 29.45 24.5002 29.7167 24.5002 30C24.5002 30.2667 24.5169 30.525 24.5502 30.775C24.5835 31.025 24.6419 31.275 24.7252 31.525L22.5752 33.15L23.5502 34.85L26.0252 33.8C26.4252 34.2167 26.8752 34.5667 27.3752 34.85C27.8752 35.1333 28.4169 35.3167 29.0002 35.4V40H27.2502ZM32.5002 41C32.0835 41 31.7294 40.8542 31.4377 40.5625C31.146 40.2708 31.0002 39.9167 31.0002 39.5V32.5C31.0002 32.0833 31.146 31.7292 31.4377 31.4375C31.7294 31.1458 32.0835 31 32.5002 31H39.5002C39.9169 31 40.271 31.1458 40.5627 31.4375C40.8544 31.7292 41.0002 32.0833 41.0002 32.5V39.5C41.0002 39.9167 40.8544 40.2708 40.5627 40.5625C40.271 40.8542 39.9169 41 39.5002 41H32.5002Z" fill="#6F7173"/>
</svg>
